<svg width="20" height="20" viewBox="0 0 20 20" fill="none" xmlns="http://www.w3.org/2000/svg">
<path d="M13.3333 6.66666C14.6594 6.66666 15.9312 7.19344 16.8689 8.13112C17.8065 9.0688 18.3333 10.3406 18.3333 11.6667V17.5H15V11.6667C15 11.2246 14.8244 10.8007 14.5118 10.4881C14.1993 10.1756 13.7754 9.99999 13.3333 9.99999C12.8913 9.99999 12.4674 10.1756 12.1548 10.4881C11.8423 10.8007 11.6667 11.2246 11.6667 11.6667V17.5H8.33333V11.6667C8.33333 10.3406 8.86011 9.0688 9.79779 8.13112C10.7355 7.19344 12.0072 6.66666 13.3333 6.66666V6.66666Z" stroke="#F2F2F2" stroke-width="2" stroke-linecap="round" stroke-linejoin="round"/>
<path d="M5.00001 7.5H1.66667V17.5H5.00001V7.5Z" stroke="#F2F2F2" stroke-width="2" stroke-linecap="round" stroke-linejoin="round"/>
<path d="M3.33334 4.99999C4.25381 4.99999 5.00001 4.2538 5.00001 3.33332C5.00001 2.41285 4.25381 1.66666 3.33334 1.66666C2.41286 1.66666 1.66667 2.41285 1.66667 3.33332C1.66667 4.2538 2.41286 4.99999 3.33334 4.99999Z" stroke="#F2F2F2" stroke-width="2" stroke-linecap="round" stroke-linejoin="round"/>
</svg>
