<svg width="366" height="295" viewBox="0 0 366 295" fill="none" xmlns="http://www.w3.org/2000/svg">
<path fill-rule="evenodd" clip-rule="evenodd" d="M278.968 1.88177C287.063 10.7058 293.452 21.2571 297.633 32.708C297.921 33.4944 298.199 34.368 297.926 35.1597C295.815 41.2553 291.744 46.3372 287.751 51.2786L280.097 60.751C277.662 63.7653 275.227 66.78 272.708 69.7185C259.889 84.6796 244.742 97.7623 227.199 105.812C226.538 106.116 225.827 106.418 225.114 106.297C224.401 106.176 223.733 105.447 223.92 104.712C226.089 96.1745 228.271 87.2481 226.531 78.6022C226.111 76.5171 225.643 73.8908 227.279 72.6361C240.529 62.4762 250.068 47.9539 259.21 33.6289C261.509 30.0268 263.802 26.4149 265.836 22.6406C269.448 15.9394 272.229 8.7427 274.088 1.29019C274.343 0.267513 275.569 -0.192992 276.54 0.0750158C277.512 0.343016 278.27 1.12128 278.968 1.88177ZM273.303 12.8396C272.481 12.4814 271.722 13.4503 271.303 14.2772C270.849 15.1725 270.396 16.0691 269.943 16.9664C261.556 33.5552 253.041 50.3986 240.26 63.4646C239.052 64.6992 237.703 66.1905 237.925 67.9471C238.639 73.5785 235.784 79.5251 231.055 82.2592C228.908 83.5001 228.933 86.7025 229.248 89.2602C229.374 90.2843 229.741 91.5678 230.719 91.6546C233.585 91.909 236.335 93.3949 238.203 95.6975C238.792 96.4245 239.909 95.9699 240.678 95.4619C260.012 82.6617 274.868 63.7559 289.372 45.1801C289.872 44.5392 290.405 43.7318 290.144 42.949C287.949 36.3647 288.301 28.8821 291.103 22.5584C289.45 19.0943 287.479 15.7982 285.228 12.7305C281.482 14.4429 277.077 14.4832 273.303 12.8396ZM227.444 102.43C228.207 102.851 229.13 102.451 229.893 102.031C231.898 100.929 233.83 99.6782 235.668 98.2906C236.154 97.9242 236.299 97.1913 236.127 96.5886C235.955 95.9858 235.525 95.4995 235.049 95.1193C233.563 93.9311 231.484 93.6182 229.741 94.3207C229.419 94.4508 229.1 94.6199 228.877 94.8981C228.618 95.2234 228.522 95.6563 228.439 96.0726C228.018 98.175 227.686 100.297 227.444 102.43ZM281.74 8.45534C280.426 5.75034 278.4 3.43386 275.948 1.83313C275.095 2.62499 274.929 3.82818 274.76 5.05486C274.644 5.89654 274.526 6.74928 274.184 7.48776C274.073 7.72799 273.937 7.95789 273.801 8.18721L273.8 8.18736V8.18757V8.18779C273.542 8.62482 273.284 9.0599 273.201 9.56176C273.074 10.3272 273.689 11.2875 274.387 11.0342C274.954 10.8283 275.548 10.9606 276.148 11.0939C276.465 11.1644 276.782 11.2351 277.098 11.2565C278.939 11.3817 280.467 9.86263 281.74 8.45534ZM292.152 24.668C290.745 27.6158 290.967 31.0975 291.223 34.3858L291.59 39.1017C291.63 39.6203 291.898 40.3202 292.373 40.1765C292.668 39.3079 293.229 38.5912 293.792 37.8727C294.285 37.2442 294.778 36.6143 295.095 35.8798C296.17 33.3926 294.977 30.5261 293.802 28.0898L292.152 24.668ZM229.154 77.01C229.213 77.9322 230.123 78.6224 231.001 78.5971C231.878 78.5711 232.668 77.9727 233.181 77.2225C233.694 76.4723 233.975 75.5783 234.25 74.6995L235.154 71.7992C235.406 70.9905 235.422 69.7546 234.619 69.6592C234.329 69.6245 234.052 69.7864 233.814 69.9642C232.914 70.6385 232.259 71.6062 231.62 72.5559L229.882 75.1418C229.505 75.7026 229.111 76.3242 229.154 77.01ZM21.8239 69.2675C15.7169 57.4927 11.8181 44.4534 10.4173 31.1181C10.3312 30.2981 9.47252 29.7669 8.6895 29.7954C7.90656 29.8239 7.19561 30.2596 6.52975 30.6943C-2.92371 36.8664 -10.9708 45.4095 -16.7551 55.4142C-17.3406 56.4269 -17.9179 57.5023 -17.9918 58.6854C-18.0643 59.8464 -17.6434 60.9727 -17.2096 62.0429C-10.8288 77.7855 -0.188343 91.1371 10.6129 103.928C18.9321 113.779 27.8374 123.751 39.4375 128.709C41.3118 129.511 44.0351 129.837 44.8298 127.877C45.0611 127.308 45.0487 126.666 45.0371 126.046L45.0364 126.022C44.9087 119.38 45.6253 112.72 47.1619 106.277C47.5167 104.786 47.702 102.776 46.3774 102.13C41.3969 99.6992 37.9839 94.7984 34.7918 90.0956C30.2045 83.3375 25.6056 76.5583 21.8239 69.2675ZM32.6052 120.738C31.9189 120.931 31.234 120.475 30.6609 120.033C20.1038 111.888 11.9225 100.863 3.88423 89.9872L-10.3012 70.7939C-7.9068 69.188 -7.60277 65.6988 -7.55061 62.7099C-7.48273 58.8247 -7.43318 54.8246 -8.766 51.2011C-9.06221 50.3957 -8.67657 49.5032 -8.26355 48.757C-6.49239 45.5566 -4.03601 42.7795 -1.13023 40.692C-0.848915 40.4899 -0.551126 40.2891 -0.213942 40.239C0.67593 40.1066 1.3586 41.0179 1.83415 41.8209C3.71224 44.9925 6.29339 48.5791 9.83407 48.318C11.1823 48.2186 11.9299 49.8909 12.3232 51.2524C17.214 68.1841 26.3969 83.456 37.1651 97.0439C38.5645 98.8095 38.9159 101.192 39.2638 103.553C39.6516 106.187 40.0359 108.793 41.865 110.487C43.427 111.932 43.1374 114.528 42.7153 116.672C42.6295 117.111 42.5266 117.581 42.2102 117.881C41.9748 118.103 41.6577 118.196 41.3523 118.281L32.6052 120.738ZM7.57727 44.3958C5.64057 42.9709 3.96768 41.15 2.67934 39.0645C2.4007 38.6134 2.12995 38.1078 2.17895 37.5721C2.23214 36.9897 2.64825 36.5236 3.06237 36.1333C4.08483 35.1696 5.24051 34.3629 6.4815 33.7464C6.93598 33.5206 7.52277 33.3372 7.90031 33.6864C8.12261 33.892 8.19275 34.2205 8.25081 34.5261L10.0395 43.9468C10.1453 44.5037 9.59056 45.0053 9.05146 45.0215C8.5123 45.0377 8.01939 44.7211 7.57727 44.3958ZM-10.1243 62.6172C-10.1622 64.3893 -10.2908 66.3779 -11.5518 67.5518C-11.8158 67.585 -11.991 67.2798 -12.0945 67.022C-13.0031 64.757 -13.9242 62.4375 -14.0673 59.9833C-14.2104 57.5292 -13.4293 54.8716 -11.525 53.4491C-11.2673 53.2566 -10.8893 53.0977 -10.6618 53.3286C-10.5704 53.4214 -10.5313 53.5561 -10.498 53.6851C-9.98049 55.6882 -10.0212 57.7977 -10.0656 59.8732L-10.1243 62.6172ZM41.2672 121.559C41.5726 121.822 41.6055 122.294 41.6138 122.71L41.7044 127.265C39.9302 126.229 38.2302 125.052 36.6243 123.746C36.3202 123.499 35.9853 123.099 36.172 122.744C36.2647 122.568 36.4568 122.484 36.6353 122.414C37.7835 121.968 38.9708 121.635 40.1766 121.417C40.5493 121.35 40.9741 121.307 41.2672 121.559ZM41.3694 103.618C41.353 103.413 41.353 103.188 41.469 103.022C41.775 102.584 42.4401 102.98 42.7215 103.437C43.3982 104.538 43.5478 105.98 43.112 107.208C42.1182 106.311 41.4779 104.992 41.3694 103.618ZM305.652 69.0333C307.42 66.688 310.644 66.3506 313.487 66.4237C314.151 66.4407 314.835 66.4746 315.44 66.7648C317.122 67.572 317.479 69.8861 317.536 71.8317C317.587 73.6024 317.577 75.3955 317.169 77.1134C316.76 78.8313 315.915 80.487 314.564 81.5408C313.956 82.0149 313.252 82.3603 312.506 82.4919C311.354 82.695 310.175 82.3835 309.08 81.9542C307.621 81.3825 306.237 80.5976 304.982 79.6284C304.368 79.1551 303.734 78.535 303.715 77.7342C303.669 75.8876 303.866 74.0353 304.297 72.2451C304.572 71.1003 304.955 69.9577 305.652 69.0333ZM310.238 80.714C312.508 81.4006 314.923 79.5504 315.783 77.2333C316.644 74.917 316.326 72.3145 315.853 69.8775C315.671 68.9423 314.722 68.419 313.847 68.169C312.491 67.7816 311.051 67.7303 309.674 68.0201C308.99 68.1646 308.291 68.4111 307.811 68.9444C307.549 69.235 307.369 69.5934 307.191 69.9476L305.86 72.5949C305.627 73.0603 305.391 73.5301 305.253 74.0367C304.842 75.5516 305.386 77.2333 306.39 78.4013C307.395 79.5685 308.799 80.2789 310.238 80.714ZM279.848 107.482C281.93 108.247 283.818 109.593 285.265 111.344C286.509 112.851 287.457 114.805 287.196 116.782C287.1 117.508 286.846 118.199 286.555 118.866C285.457 121.389 283.568 123.806 280.974 124.295C279.613 124.551 278.21 124.244 276.901 123.775C275.388 123.232 273.944 122.472 272.625 121.521C271.925 121.017 271.23 120.418 270.923 119.586C270.711 119.012 270.705 118.379 270.713 117.764C270.733 116.242 270.829 114.694 271.332 113.267C271.97 111.462 273.218 109.971 274.541 108.641C275.073 108.107 275.637 107.58 276.32 107.293C277.438 106.824 278.712 107.064 279.848 107.482ZM281.977 120.75C283.481 119.182 284.357 116.909 284.119 114.694C283.88 112.479 282.457 110.401 280.466 109.645C279.638 109.33 278.721 109.243 277.873 109.489C277.415 109.623 276.986 109.85 276.586 110.118C274.872 111.266 273.669 113.224 273.376 115.341C273.085 117.457 273.708 119.695 275.041 121.31C275.894 122.344 277.287 122.787 278.578 122.615C279.868 122.443 281.052 121.713 281.977 120.75ZM91.9451 94.4248C91.8751 93.3804 90.5491 93.1065 89.5553 93.1369C84.338 93.2988 79.1268 93.71 73.9452 94.3706C73.0935 94.479 73.0248 95.9237 73.7077 96.4701C74.3913 97.0157 75.3425 96.9145 76.1915 96.7873L91.9451 94.4248ZM75.2657 101.486C75.3103 100.949 75.9527 100.754 76.4619 100.694L107.194 97.0287C107.749 96.9622 108.342 96.9022 108.842 97.166C109.342 97.4298 109.664 98.1504 109.338 98.6288C109.097 98.9815 108.635 99.0531 108.224 99.095L76.792 102.307C76.138 102.373 75.208 102.176 75.2657 101.486ZM144.161 106.938C142.442 107.335 140.677 106.682 139.028 106.033C133.697 103.935 128.385 101.778 123.096 99.5648C120.961 98.6715 118.618 100.009 116.698 101.338C111.14 105.182 105.789 109.358 100.679 113.839C99.3668 114.991 97.347 114.183 96.0231 113.046C95.7431 112.806 95.4679 112.549 95.1913 112.292C94.1605 111.333 93.1159 110.361 91.7824 110.161C89.7324 109.856 87.9295 111.492 86.4436 113.01L76.8648 122.807C75.5765 124.124 74.2204 126.235 75.3672 127.69C76.1235 128.65 77.5126 128.602 78.6897 128.458C84.8349 127.708 90.9492 126.656 97.0622 125.604H97.0629C107.166 123.866 117.263 122.13 127.482 121.757C129.746 121.675 132.012 121.66 134.277 121.645C135.697 121.635 137.115 121.625 138.534 121.599C144.932 121.482 151.325 121.028 157.681 120.24C157.987 120.201 158.337 120.135 158.497 119.855C158.617 119.644 158.587 119.378 158.554 119.135L155.861 99.8466C155.725 98.8666 155.486 97.7334 154.635 97.3099C153.776 96.8827 152.764 97.4342 152.058 98.1049C150.955 99.155 150.104 100.549 149.266 101.924C147.89 104.181 146.545 106.387 144.161 106.938ZM100.444 117.492C106.194 112.514 112.188 107.851 118.397 103.526C119.671 102.638 121.221 101.729 122.646 102.313L137.699 108.472C140.212 109.501 142.96 110.542 145.539 109.718C148.538 108.759 150.33 105.618 151.84 102.727C152.133 102.164 152.988 102.229 153.411 102.691C153.834 103.153 153.941 103.833 154.028 104.468L155.13 112.512C155.299 113.747 155.465 115.029 155.126 116.224C154.787 117.42 153.791 118.506 152.607 118.482C133.229 118.088 113.814 119.771 94.7583 123.496C94.1687 123.611 93.5785 123.728 92.9883 123.845L92.9876 123.846C88.4353 124.751 83.8658 125.659 79.2394 125.675C81.4733 122.344 84.3044 119.513 87.1148 116.707C88.6583 115.166 90.5882 113.505 92.6602 114.008C93.7789 114.281 94.6375 115.127 95.4912 115.97H95.4919V115.971H95.4926V115.971C95.7658 116.241 96.0389 116.51 96.3196 116.76C97.4788 117.79 99.2728 118.507 100.444 117.492ZM349.043 173.603C348.529 173.805 347.956 173.667 347.433 173.494C343.889 172.321 341.012 169.697 338.183 167.119C337.8 166.77 337.418 166.422 337.035 166.078C332.349 161.869 327.263 158.152 321.879 155.003C321.331 154.683 320.756 154.346 320.421 153.788C320.085 153.231 320.095 152.383 320.613 152.011C323.027 150.275 324.594 147.296 324.708 144.219C324.739 143.399 325.619 142.852 326.395 142.918C327.172 142.984 327.849 143.475 328.484 143.95L353.089 162.343C353.568 162.7 354.084 163.116 354.202 163.722C354.297 164.217 354.101 164.717 353.902 165.176C352.841 167.642 351.621 170.032 350.253 172.324C349.942 172.843 349.589 173.389 349.043 173.603ZM324.427 151.784C324.138 152.321 323.887 153.098 324.356 153.47L344.435 169.39C345.534 170.262 347.243 171.079 348.109 169.952C349.103 168.658 350.032 167.308 350.89 165.911C351.124 165.528 351.363 165.091 351.279 164.645C351.202 164.236 350.876 163.941 350.57 163.679C343.201 157.387 335.399 151.658 327.245 146.551L324.427 151.784ZM314.435 161.519C314.759 160.934 315.153 160.293 315.781 160.149C316.263 160.039 316.752 160.256 317.196 160.483C319.614 161.72 321.828 163.395 323.712 165.414C324.165 165.9 324.221 166.682 324.019 167.329C323.817 167.976 323.401 168.52 322.994 169.049C322.339 169.899 321.641 170.783 320.675 171.186C319.632 171.621 318.418 171.411 317.43 170.851C316.442 170.291 315.65 169.415 314.951 168.491C314.039 167.285 313.223 165.838 313.365 164.305C313.457 163.3 313.952 162.392 314.435 161.519ZM318.663 168.27C320.184 168.893 321.156 168.399 321.196 167.349C321.222 166.686 320.673 166.176 320.174 165.772L318.663 164.548C318.164 164.144 317.614 163.721 316.984 163.725C316.354 163.729 315.713 164.413 315.971 165.018C315.932 165.31 317.143 167.647 318.663 168.27ZM312.661 181.196C313.033 181.41 313.425 181.62 313.848 181.629C314.271 181.638 314.729 181.386 314.833 180.955C315.076 179.942 315.713 179.102 316.336 178.28C316.404 178.19 316.472 178.1 316.539 178.011C317.221 177.101 317.88 176.071 317.898 174.912C317.916 173.754 317.005 172.519 315.914 172.676C315.056 172.801 314.256 172.208 313.632 171.574C313.533 171.473 313.434 171.369 313.335 171.265C312.813 170.716 312.283 170.159 311.589 169.921C310.764 169.639 309.642 170.088 309.576 170.999C309.445 172.833 307.997 174.214 306.655 175.39C306.253 175.742 306.616 176.418 306.992 176.801C308.684 178.523 310.597 180.006 312.661 181.196ZM312.93 177.702L310.285 175.818C309.613 175.339 309.667 174.166 310.266 173.589C310.866 173.013 311.798 172.969 312.562 173.257C313.326 173.546 313.962 174.111 314.58 174.667C314.988 175.034 315.045 175.703 314.858 176.233C314.67 176.764 314.29 177.189 313.919 177.598C313.792 177.738 313.65 177.887 313.467 177.912C313.274 177.938 313.092 177.818 312.93 177.702ZM333.895 177.826L335.188 174.932C335.584 174.047 335.968 172.951 335.433 172.149C335.248 171.871 334.974 171.675 334.706 171.485L330.002 168.147C329.495 167.786 328.944 167.413 328.333 167.423C327.608 167.435 327 167.98 326.485 168.517C325.714 169.322 324.993 170.181 324.329 171.085C323.823 171.773 323.408 172.905 324.099 173.383L331.297 178.357C331.866 178.749 332.587 179.152 333.183 178.811C333.534 178.61 333.725 178.206 333.895 177.826ZM332.299 175.778C331.997 175.851 331.682 175.77 331.385 175.676C329.567 175.099 327.904 173.994 326.626 172.516C326.201 172.025 326.441 171.157 326.981 170.812C327.521 170.467 328.223 170.546 328.805 170.804C329.182 170.971 329.525 171.202 329.87 171.434C330.059 171.561 330.247 171.688 330.442 171.805C330.651 171.93 330.868 172.044 331.087 172.16C331.705 172.486 332.325 172.813 332.747 173.379C333.317 174.143 333.199 175.56 332.299 175.778ZM334.731 179.009C335.561 178.802 335.814 177.911 336.078 176.985C336.295 176.22 336.52 175.43 337.082 174.983C338.05 174.213 339.421 174.857 340.464 175.51L343.78 177.587C344.309 177.919 344.849 178.261 345.229 178.771C345.608 179.281 345.794 180.003 345.529 180.587C345.352 180.977 345.017 181.236 344.68 181.496C344.404 181.71 344.126 181.925 343.932 182.215C343.683 182.587 343.59 183.053 343.498 183.513C343.383 184.092 343.269 184.661 342.851 185.025C342.088 185.687 340.952 185.156 340.108 184.613L335.436 181.607C334.965 181.303 334.467 180.97 334.236 180.443C334.005 179.914 334.194 179.144 334.731 179.009ZM340.856 181.995C341.525 181.754 342.063 181.232 342.579 180.723C342.953 180.354 342.453 179.748 342.006 179.483L339.144 177.786C338.845 177.609 338.43 177.448 338.198 177.714C337.452 178.57 337.345 179.968 337.948 180.941C338.552 181.914 339.812 182.37 340.856 181.995ZM308.014 181.889C307.373 181.699 306.721 181.506 306.198 181.13C305.384 180.546 304.253 180.688 303.4 181.204C302.547 181.72 301.911 182.546 301.295 183.354C300.954 183.802 300.603 184.27 300.472 184.829C300.342 185.387 300.498 186.063 300.975 186.343L305.966 189.273C306.344 189.495 306.767 189.724 307.189 189.625C307.609 189.527 307.9 189.134 308.153 188.767L309.437 186.906C310.152 185.87 310.899 184.55 310.377 183.393C309.957 182.467 308.999 182.182 308.014 181.889ZM306.434 186.71C306.173 186.783 305.905 186.65 305.664 186.521L302.263 184.699C302.917 183.724 304.161 183.35 305.288 183.469C306.416 183.586 307.463 184.114 308.482 184.634L306.92 186.343C306.78 186.496 306.629 186.656 306.434 186.71ZM282.875 113.836C283.402 114.681 283.237 115.811 282.888 116.753C282.427 117.993 281.649 119.144 280.55 119.804C279.451 120.464 278.007 120.561 276.937 119.851C275.865 119.141 275.328 117.563 275.902 116.376C276.034 116.101 276.215 115.858 276.397 115.614C276.57 115.382 276.743 115.149 276.874 114.888C276.961 114.717 277.028 114.535 277.095 114.353C277.192 114.091 277.288 113.829 277.442 113.601C277.987 112.788 279.061 112.628 280.005 112.642C281.077 112.658 282.287 112.892 282.875 113.836ZM280.483 114.373C279.016 114.353 277.641 115.648 277.496 117.185C277.436 117.813 277.69 118.593 278.283 118.68C278.728 118.745 279.119 118.383 279.417 118.03C280.05 117.284 280.593 116.453 281.03 115.565C281.177 115.267 281.307 114.885 281.114 114.618C280.973 114.423 280.715 114.376 280.483 114.373ZM315.553 74.0996C315.44 72.686 314.542 71.2955 313.237 70.9413C311.58 70.4911 309.973 71.7197 308.657 72.8732C308.268 73.2136 307.862 73.5807 307.697 74.0844C307.417 74.9401 307.92 75.8414 308.416 76.5807C308.983 77.4263 309.59 78.2777 310.418 78.8363C311.246 79.3957 312.35 79.6133 313.219 79.1269C313.662 78.8797 314.007 78.475 314.306 78.0508C315.111 76.9125 315.666 75.514 315.553 74.0996ZM311.878 77.7248C311.315 77.8137 310.733 77.5745 310.32 77.1647C309.7 76.5504 309.454 75.5624 309.671 74.6959C309.899 73.7838 310.626 73.03 311.496 72.8052C312.366 72.5797 313.342 72.8927 313.945 73.5901C313.923 73.7802 313.904 73.9717 313.885 74.1632C313.821 74.8137 313.757 75.4648 313.543 76.0755C313.267 76.8662 312.669 77.5998 311.878 77.7248ZM267.265 298.273C270.321 286.889 276.091 276.557 281.801 266.368C282.766 264.646 283.962 262.75 285.836 262.423C286.574 262.295 286.964 261.45 287.215 260.707C290.312 251.559 290.61 241.386 288.056 232.054C287.327 229.391 288.225 226.567 289.113 223.958L295.99 203.755C295.275 202.452 293.922 201.88 292.552 201.3C291.406 200.815 290.247 200.325 289.439 199.397C287.156 196.777 288.879 192.611 290.667 189.594L322.014 136.73C323.294 134.571 326.103 133.894 328.457 134.469C330.812 135.045 332.823 136.606 334.759 138.129L357.622 156.111C361.711 159.327 366.227 163.437 365.991 168.807C365.861 171.779 364.246 174.42 362.684 176.899L344.565 205.65C342.222 209.367 341.938 213.887 341.652 218.427V218.428C341.523 220.481 341.394 222.539 341.074 224.529C339.512 234.236 333.373 242.274 327.491 249.976C327.256 250.284 327.022 250.591 326.788 250.897C320.701 258.88 314.611 267.795 314.269 278.027C313.861 290.223 308.359 302.134 299.5 310L307.209 290.306C309.042 285.622 310.74 279.795 307.672 275.893C306.284 274.128 304.185 273.194 302.172 272.324L290.199 267.15C289.373 266.794 288.522 266.432 287.63 266.426C284.849 266.408 283.194 269.585 282.066 272.262C278.165 281.525 273.181 290.282 267.265 298.273ZM306.634 271.527C308.687 272.327 311.577 272.814 312.55 270.749C317.258 260.754 322.096 250.568 329.591 242.681C333.91 238.136 336.558 232.071 338.056 225.837C339.554 219.603 339.979 213.146 340.397 206.732C338.578 207.428 338.42 210.013 338.428 212.051C338.445 216.544 337.699 221.039 336.235 225.259C335.929 226.143 335.518 227.097 334.698 227.47C333.879 227.843 332.671 227.094 332.946 226.2C335.061 219.334 335.849 212.019 335.249 204.829C335.063 202.6 334.668 200.215 333.164 198.636C333.327 202.155 333.49 205.691 333.151 209.197C332.565 215.263 330.5 221.046 328.453 226.749C328.187 227.49 327.865 228.297 327.191 228.645C326.515 228.993 325.467 228.441 325.644 227.672L328.709 214.327C330.395 206.99 332.052 199.097 329.443 192.066C328.129 191.974 327.819 193.952 327.937 195.334C328.74 204.796 326.256 214.188 323.797 223.328C323.51 224.395 322.493 225.729 321.704 224.995C321.364 224.679 321.348 224.133 321.375 223.656C321.531 220.968 322.231 218.366 322.929 215.767C323.146 214.96 323.363 214.154 323.563 213.345C325.412 205.89 325.883 198.061 324.944 190.42C323.324 192.606 322.638 195.378 321.989 198.065L318.142 214.014C316.402 221.224 314.179 229.15 308.148 233.023C307.668 233.331 307.111 233.618 306.563 233.482C305.883 233.312 305.498 232.571 305.214 231.898C301.365 222.768 300.884 212.117 303.893 202.644C304.076 202.069 303.52 201.468 302.947 201.42C302.372 201.373 301.835 201.702 301.365 202.051C296.427 205.72 294.535 212.367 292.964 218.513L290.876 226.684C290.57 227.878 290.264 229.082 290.2 230.317C290.103 232.192 290.568 234.028 291.032 235.854C291.139 236.277 291.246 236.699 291.346 237.122C293.355 245.612 292.447 254.832 288.827 262.708C288.294 263.869 289.703 264.925 290.851 265.373L306.634 271.527ZM314.435 193.539C313.612 192.941 312.73 192.26 312.475 191.241C312.085 189.68 313.497 188.111 315.017 187.902C316.538 187.691 318.025 188.464 319.285 189.385C321.059 190.681 323.305 188.704 324.634 186.911C322.841 185.782 321.132 184.029 321.061 181.831C320.99 179.632 323.528 177.539 325.217 178.832C325.873 179.335 326.666 179.642 327.45 179.945C328.625 180.401 329.78 180.848 330.424 181.931C331.157 183.164 330.897 184.83 330.151 186.054C329.405 187.277 328.256 188.155 327.135 189.004C328.744 189.172 330.311 189.776 331.643 190.742L333.094 186.289C333.207 185.943 333.329 185.583 333.587 185.338C334.085 184.868 334.859 185.014 335.496 185.226C337.167 185.785 338.806 186.657 339.909 188.092C341.011 189.527 341.471 191.612 340.701 193.27C339.93 194.929 337.755 195.813 336.281 194.813C335.975 194.606 335.668 194.328 335.36 194.051C334.539 193.31 333.717 192.568 332.924 193.162C335.346 195.148 337.009 198.131 337.476 201.326C345.099 189.097 352.641 176.812 360.1 164.472C360.812 163.294 361.387 161.437 360.227 160.76C355.273 157.866 350.895 153.99 346.527 150.124C341.014 145.243 335.517 140.378 328.901 137.521C328.481 137.339 328.022 137.164 327.583 137.285C327.123 137.413 326.799 137.834 326.51 138.232C314.19 155.165 303.133 173.117 293.475 191.867C292.128 194.484 293.931 197.602 295.656 199.959C296.518 201.137 298.182 202.381 299.122 201.271C300.307 199.873 302.249 199.074 303.927 199.698C305.605 200.322 306.649 202.62 305.736 204.229C305.077 205.393 306.369 206.686 307.498 207.337C309.753 208.639 312.067 209.828 314.429 210.9C314.757 211.049 315.139 211.195 315.459 211.027C315.763 210.866 315.886 210.485 315.982 210.14L318.598 200.661C319.028 199.102 319.316 197.078 318.046 196.157L314.435 193.539ZM361.236 166.965C360.889 166.84 360.572 167.206 360.368 167.527L340.779 198.407C340.252 199.237 339.712 200.101 339.558 201.086C339.404 202.072 339.749 203.218 340.6 203.657C342.011 204.384 343.487 202.857 344.392 201.506L362.593 174.341C363.945 172.325 362.8 169.567 361.644 167.421C361.544 167.235 361.428 167.035 361.236 166.965ZM306.084 208.199C305.739 207.935 305.223 208.092 304.934 208.423C304.646 208.754 304.528 209.207 304.419 209.641C304.151 210.71 303.882 211.791 303.842 212.895C303.802 214 303.993 215.099 304.183 216.186L306.059 226.924C306.138 227.374 306.23 227.852 306.533 228.181C306.836 228.508 307.427 228.579 307.672 228.201C310.449 223.926 313.265 219.566 314.717 214.617C314.897 214.001 314.95 213.136 314.377 212.91C311.429 211.741 308.631 210.152 306.084 208.199ZM327.746 181.706C326.806 180.763 325.563 180.16 324.272 180.021C323.094 179.895 322.415 181.637 322.952 182.747C323.49 183.858 324.677 184.408 325.776 184.872C326.552 185.199 327.493 185.508 328.169 184.991C329.14 184.248 328.616 182.578 327.746 181.706ZM320.013 194.148C320.396 193.861 320.446 193.274 320.339 192.792C319.934 190.974 318.042 190.046 316.343 189.513C315.686 189.307 314.868 189.164 314.405 189.696C314.018 190.141 314.101 190.877 314.434 191.367C314.768 191.857 315.289 192.159 315.794 192.445L318.418 193.934C318.916 194.216 319.551 194.494 320.013 194.148ZM334.946 187.597C334.39 188.381 334.447 189.521 334.91 190.368C335.374 191.215 336.177 191.803 337.024 192.204C337.314 192.341 337.633 192.462 337.945 192.396C338.214 192.341 338.444 192.15 338.608 191.919C339.214 191.066 338.92 189.781 338.225 189.006C337.531 188.231 336.542 187.842 335.591 187.48C335.427 187.417 335.236 187.356 335.086 187.451C335.072 187.459 335.059 187.47 335.047 187.48C335.008 187.514 334.976 187.556 334.946 187.597ZM71.7401 258.617C72.1038 255.789 72.6131 252.676 74.7228 250.886C76.4049 249.458 78.7151 249.23 80.8756 249.186C87.9528 249.043 95.0527 250.253 101.726 252.741C103.837 253.527 106.047 254.564 107.201 256.584C108.45 258.772 108.145 261.531 107.8 264.058L102.441 303.267C106.137 291.912 108.79 280.181 110.351 268.291C111.08 262.744 111.334 256.379 107.657 252.332C101.919 246.017 102.075 237.02 102.234 227.872C102.372 219.977 102.511 211.97 98.8638 205.476C97.6737 203.357 100.327 201.169 102.533 200.356C112.258 196.77 122.625 195.125 132.922 195.533C134.81 211.237 135.321 227.123 134.446 242.926C134.249 246.469 139.023 247.384 142.373 246.992L258.609 233.42C259.19 233.352 259.82 233.261 260.231 232.823C260.713 232.314 260.736 231.512 260.73 230.792C260.456 202.113 259.672 173.44 258.379 144.793C258.329 143.674 258.194 142.39 257.314 141.761C256.656 141.289 255.789 141.351 254.995 141.433L172.031 149.902C177.481 122.833 182.962 95.2552 180.476 67.7079C162.34 80.4422 138.937 80.3468 117.177 78.9982C116.273 78.9419 115.366 78.8848 114.458 78.8277C93.5167 77.5101 71.679 76.1355 52.8528 85.6748C62.7103 113.197 72.6803 143.238 64.4865 171.359C63.7617 173.847 62.899 176.291 62.037 178.734C60.7076 182.5 59.3796 186.263 58.5581 190.181C57.204 196.64 57.4072 203.872 61.037 209.27C66.2935 217.087 70.4704 225.976 71.4237 235.502C72.3276 244.541 70.3071 253.505 68.2893 262.461C66.181 271.817 64.0753 281.163 65.31 290.57C65.5193 292.162 65.8961 293.873 67.0793 294.888L71.7401 258.617ZM79.9641 145.025C82.1624 145.108 83.0361 148.014 83.3168 150.311L85.5425 168.501C81.1974 166.129 75.0845 170.155 75.2087 175.308C71.5472 167.866 70.9913 159.336 70.4402 150.893C70.3208 149.057 70.2014 147.224 70.0497 145.408C68.4334 125.982 62.8743 107.194 57.3495 88.583C56.5616 85.9291 59.9643 84.2083 62.5764 83.8051C79.7205 81.1577 97.0711 81.5234 114.43 81.8891C122.299 82.0546 130.168 82.2209 138.021 82.1059C151.975 81.9021 166.74 80.5116 178.059 71.9156C180.603 89.7755 177.145 107.794 173.731 125.587C173.27 127.994 172.808 130.396 172.363 132.794C168.626 152.915 166.082 174.363 173.232 193.433C173.534 194.237 172.506 194.843 171.703 195.019C165.822 196.311 159.742 196.589 153.777 195.839C151.218 195.518 148.687 195.01 146.154 194.501C144.247 194.119 142.34 193.736 140.421 193.432C125.972 191.149 110.891 193.519 97.7039 200.144C97.1755 200.409 96.5468 200.285 95.9936 200.083C93.3232 199.11 91.418 196.512 90.4674 193.709C89.5169 190.906 89.381 187.882 89.254 184.908L88.7222 172.439C88.7029 171.992 88.8141 171.383 89.2403 171.369C112.339 170.609 135.413 168.969 158.399 166.453C157.427 160.727 157.331 154.836 158.115 149.076C158.61 145.441 155.363 142.126 151.906 141.64C148.449 141.153 145.031 142.802 142.16 144.888C141.086 145.669 140.055 146.516 139.025 147.363C137.3 148.781 135.578 150.197 133.66 151.295C132.404 152.013 130.895 152.592 129.576 152.013C127.963 151.302 127.422 149.282 126.939 147.478C126.909 147.364 126.879 147.251 126.849 147.14C126.219 144.817 125.181 142.504 123.353 141.043C121.526 139.582 118.77 139.218 116.966 140.711C115.424 141.988 114.936 144.199 114.678 146.247C114.655 146.429 114.632 146.613 114.61 146.796C114.381 148.679 114.144 150.624 113.077 152.134C111.906 153.791 109.293 154.502 108.008 152.941C105.468 149.853 101.011 149.206 97.2702 150.289C93.5291 151.372 90.3288 153.875 87.2253 156.327C85.3531 153.241 85.198 149.087 86.8348 145.857L86.8623 145.803C87.1697 145.197 87.5239 144.5 87.2514 143.883C87.0832 143.5 86.7113 143.266 86.3434 143.099C84.1424 142.105 81.3306 142.955 79.9641 145.025ZM146.105 197.168C147.335 197.426 148.848 198.005 148.924 199.324C149.649 211.903 159.143 223.207 170.815 225.992C182.487 228.776 195.423 223.146 202.229 212.779C209.035 202.413 209.568 188.012 203.987 176.863C198.002 164.906 183.458 158.557 171.195 162.547C170.626 159.905 170.69 157.114 171.379 154.504C171.508 154.02 171.675 153.513 172.046 153.197C172.409 152.887 172.9 152.817 173.363 152.758L207.906 148.377C210.943 147.992 213.988 147.606 217.047 147.58C230.2 147.465 243.344 146.084 256.26 143.459C258.266 171.837 259.211 200.299 259.09 228.755C259.084 230.105 258.694 231.899 257.413 231.938C235.672 232.605 214.104 235.617 192.526 238.629C178.029 240.653 163.529 242.678 148.969 243.992C145.724 244.285 142.458 244.543 139.215 244.218C138.627 244.158 137.964 244.032 137.645 243.509C137.452 243.194 137.43 242.8 137.415 242.425L135.476 196.909C135.451 196.321 135.485 195.612 135.969 195.317C136.289 195.121 136.69 195.191 137.054 195.268L146.105 197.168ZM86.6262 186.63C86.2823 188.995 85.8959 191.654 87.3667 193.443C92.8524 200.114 98.5515 207.242 100.009 215.933C100.69 219.991 100.398 224.167 100.107 228.327C99.7395 233.566 99.3744 238.779 100.959 243.695C101 243.822 101.043 243.951 101.086 244.08C101.377 244.956 101.674 245.85 101.58 246.764C101.471 247.813 100.606 248.869 99.618 248.69L88.1505 246.607C84.3524 245.918 80.3402 245.246 76.7323 246.674C76.035 246.95 75.232 246.465 74.8587 245.787C74.4846 245.108 74.4359 244.291 74.403 243.507C74.3638 242.561 74.335 241.607 74.3055 240.652C74.1202 234.64 73.9315 228.515 71.2885 223.247L62.8578 206.44C61.6129 203.959 60.3391 201.368 60.2533 198.563C60.1956 196.69 60.6761 194.851 61.1517 193.045L65.3581 177.091C66.2434 173.731 67.1802 170.266 69.2776 167.568C74.3721 176.67 74.8745 188.445 70.5761 197.991C70.1787 198.874 71.3935 199.783 72.2596 199.431C73.1251 199.079 73.565 198.081 73.8697 197.158C75.0927 193.461 75.5216 189.563 75.9506 185.66C76.2979 182.502 76.6458 179.34 77.4152 176.278C77.886 174.402 78.5654 172.488 79.9415 171.196C81.3169 169.905 83.5604 169.463 85.0017 170.672C86.1046 171.597 86.4635 173.178 86.6735 174.646C87.2267 178.521 87.2246 182.482 86.666 186.356C86.6529 186.447 86.6392 186.539 86.6262 186.63ZM106.414 155.133C108.104 156.495 109.76 157.829 111.788 157.582C114.366 157.268 115.973 154.474 116.722 151.857C116.885 151.284 117.031 150.698 117.177 150.111C117.699 148.014 118.224 145.901 119.59 144.324C119.987 143.866 120.559 143.438 121.123 143.618C121.579 143.764 121.846 144.251 122.058 144.701C122.358 145.339 122.643 145.988 122.927 146.636C123.73 148.467 124.532 150.298 125.698 151.888C127.276 154.042 129.732 155.736 132.3 155.44C134.597 155.175 136.391 153.463 138.14 151.793C138.498 151.451 138.855 151.111 139.214 150.785C143.427 146.959 148.913 144.721 154.473 144.56C153.723 146.534 154.224 148.687 154.714 150.8C154.832 151.309 154.95 151.815 155.049 152.316C155.834 156.267 155.438 160.471 153.929 164.182L116.79 167.193C108.12 167.896 99.4279 168.599 90.7378 168.278C90.1888 168.257 89.6253 168.229 89.1209 168.002C88.1669 167.572 87.6 166.5 87.3948 165.429C86.9343 163.028 87.9857 160.527 89.578 158.741C91.1709 156.955 93.2504 155.752 95.2929 154.58C97.4184 153.359 99.7779 152.098 102.148 152.619C103.725 152.965 105.08 154.058 106.414 155.133ZM176.741 212.103C171.114 211.981 166.24 207.147 164.569 201.488C164.228 200.333 164.938 199.065 165.916 198.431C166.894 197.797 168.078 197.646 169.22 197.512L177.464 196.536C174.957 191.405 173.171 185.883 172.183 180.207C172.094 179.692 172.012 179.152 172.167 178.654C172.438 177.78 173.332 177.32 174.159 177.028C180.857 174.657 188.9 177.535 192.838 183.713C196.777 189.891 196.261 198.821 191.638 204.448C189.637 206.885 187.014 208.683 184.251 210.067C181.895 211.247 179.35 212.159 176.741 212.103ZM203.44 181.603C204.441 185.085 204.73 188.746 204.868 192.38C202.62 192.022 200.349 191.818 198.076 191.772C197.631 185.658 193.768 180.135 188.688 177.139C183.608 174.143 177.477 173.496 171.736 174.521C171.688 173.66 171.539 172.761 171.39 171.861C170.996 169.488 170.603 167.116 172.06 165.431C172.939 164.413 174.28 164.006 175.565 163.755C181.417 162.606 187.657 163.809 192.743 167.066C197.829 170.323 201.715 175.603 203.44 181.603ZM162.175 200.871C162.166 200.984 162.157 201.095 162.153 201.201C162.114 202.046 162.488 202.821 162.858 203.588C162.958 203.793 163.057 203.998 163.147 204.203C163.576 205.177 163.783 206.458 163.067 207.22C161.333 209.064 159.8 211.117 158.509 213.328C158.19 213.874 157.404 213.919 156.879 213.593C156.354 213.267 156.029 212.685 155.725 212.129C153.806 208.606 151.839 204.92 151.6 200.867C151.57 200.363 151.623 199.752 152.047 199.517C152.235 199.414 152.455 199.411 152.666 199.41L161.248 199.383C161.453 199.382 161.669 199.384 161.847 199.491C162.269 199.743 162.221 200.328 162.175 200.871Z" fill="white"/>
<path fill-rule="evenodd" clip-rule="evenodd" d="M215.516 195.865C215.544 195.491 215.588 195.09 215.822 194.808C216.052 194.533 216.413 194.434 216.752 194.351C225.492 192.208 234.519 191.369 243.479 191.868C244.621 191.932 246.089 192.338 246.164 193.539C246.597 200.424 247.03 207.308 247.463 214.193C247.485 214.541 247.496 214.927 247.284 215.196C247.111 215.415 246.833 215.5 246.571 215.572C237.252 218.13 227.428 218.635 217.916 217.043C217.671 217.002 217.413 216.954 217.223 216.786C216.993 216.583 216.912 216.253 216.847 215.945C215.444 209.374 214.994 202.577 215.516 195.865ZM217.577 207.285C217.748 209.885 218.266 212.459 219.11 214.909C219.952 215.036 220.785 215.221 221.624 215.37C228.853 216.659 236.246 215.362 243.473 214.067C243.986 213.975 244.549 213.853 244.865 213.419C245.188 212.974 245.146 212.356 245.087 211.8C244.838 209.427 244.589 207.055 244.34 204.683C244.32 204.492 244.295 204.287 244.171 204.144C244.022 203.971 243.778 203.943 243.557 203.928C238.421 203.572 233.268 203.976 228.135 204.379C225.298 204.602 222.46 204.825 219.623 205.048C218.956 205.1 218.198 205.204 217.815 205.781C217.533 206.206 217.542 206.768 217.577 207.285ZM217.656 197.363C217.207 198.879 217.127 200.515 217.424 202.071C217.478 202.351 217.553 202.647 217.754 202.837C218.054 203.119 218.509 203.073 218.907 203.012C223.74 202.266 228.627 201.896 233.512 201.904C234.201 201.905 234.413 200.929 234.405 200.202C234.394 199.139 234.383 198.076 234.372 197.013C234.365 196.397 234.336 195.719 233.936 195.271C233.456 194.732 232.652 194.749 231.952 194.805C230.334 194.935 228.715 195.065 227.097 195.196C226.322 195.258 224.269 195.812 223.325 195.878C221.682 196.154 220.039 196.43 218.396 196.706C218.22 196.735 218.036 196.769 217.901 196.89C217.769 197.008 217.708 197.189 217.656 197.363ZM239.328 201.988C240.612 202.006 241.898 201.87 243.154 201.586C243.453 201.519 243.767 201.432 243.98 201.201C244.293 200.862 244.291 200.331 244.268 199.859C244.201 198.488 244.135 197.117 244.068 195.746C244.045 195.257 243.993 194.706 243.63 194.4C243.311 194.131 242.86 194.147 242.451 194.176C241.023 194.278 239.595 194.381 238.167 194.483C237.94 194.499 237.703 194.52 237.514 194.651C237.168 194.892 237.116 195.396 237.106 195.833C237.075 197.286 237.131 198.741 237.275 200.187C237.317 200.605 237.375 201.046 237.62 201.378C238.003 201.894 238.705 201.98 239.328 201.988Z" fill="#2BAAAA"/>
<path fill-rule="evenodd" clip-rule="evenodd" d="M237.883 165.778C239.792 164.909 242.134 165.2 243.799 166.515C245.462 167.83 246.383 170.116 246.124 172.29C247.294 171.624 248.778 170.968 249.87 171.768C251.102 172.671 250.821 174.616 250.636 176.185C250.312 178.927 250.732 181.761 251.832 184.269C252.287 185.306 252.677 186.877 251.668 187.295C251.498 187.365 251.313 187.382 251.13 187.397C239.306 188.401 227.481 189.404 215.656 190.408C215.331 190.436 214.968 190.451 214.723 190.225C214.472 189.995 214.441 189.605 214.428 189.256C214.315 186.327 214.201 183.398 214.087 180.469C214.057 179.683 214.043 178.836 214.464 178.187C215.162 177.112 216.622 177.116 217.842 176.91C219.063 176.704 220.482 175.62 220.012 174.416C219.489 173.074 221.274 172.094 222.635 171.875C223.998 171.657 225.804 170.802 225.392 169.418C224.941 167.906 226.917 166.967 228.409 166.759C229.462 166.612 230.562 166.469 231.561 166.85C232.56 167.23 233.403 168.312 233.179 169.405C232.921 170.657 234.368 171.823 235.509 171.38C236.65 170.939 237.112 169.297 236.535 168.17C236.063 167.25 236.971 166.194 237.883 165.778ZM243.989 185.08C243.547 184.217 243.543 183.189 243.539 182.207C243.521 177.601 243.252 172.995 242.735 168.421C242.709 168.189 242.668 167.931 242.488 167.796C242.333 167.68 242.125 167.694 241.935 167.712C241.011 167.803 239.917 168.018 239.552 168.917C239.396 169.3 239.414 169.732 239.436 170.149C239.67 174.766 239.904 179.383 240.138 184C240.16 184.43 240.215 184.924 240.554 185.165C240.739 185.296 240.972 185.32 241.194 185.332C242.131 185.387 243.074 185.301 243.989 185.08ZM228.084 177.981C227.969 178.751 227.808 179.514 227.766 180.291C227.694 181.59 227.954 182.882 228.212 184.154C228.378 184.97 229.379 185.371 230.113 185.057C230.847 184.743 231.291 183.918 231.412 183.093C231.534 182.27 231.391 181.43 231.266 180.607C230.776 177.369 230.564 174.086 230.633 170.809C230.651 169.98 229.883 169.231 229.099 169.313C228.315 169.394 227.702 170.288 227.874 171.097C228.352 173.351 228.424 175.7 228.084 177.981ZM235.861 173.559C235.4 172.923 234.343 173.262 233.984 173.967C233.624 174.672 233.734 175.526 233.823 176.321C234.056 178.395 234.078 180.497 233.89 182.576C233.834 183.19 233.772 183.859 234.093 184.373C234.588 185.165 235.673 185.158 236.568 185.062C236.848 185.032 237.171 184.975 237.312 184.717C237.41 184.538 237.387 184.316 237.361 184.111C236.948 180.884 236.535 177.658 236.123 174.431C236.084 174.125 236.039 173.804 235.861 173.559ZM246.104 174.946C245.757 175.445 245.683 176.094 245.653 176.712C245.55 178.83 245.816 180.946 246.082 183.049C246.187 183.877 246.547 184.941 247.339 184.885C248.141 184.828 248.35 183.698 248.332 182.851C248.282 180.609 248.233 178.366 248.183 176.124C248.17 175.534 248.111 174.852 247.647 174.522C247.159 174.177 246.451 174.448 246.104 174.946ZM221.866 174.416C221.866 174.416 222.218 177.343 222.341 178.834C222.495 180.706 222.692 182.574 222.931 184.436C222.965 184.707 223.012 184.999 223.201 185.185C223.53 185.508 224.797 185.293 225.03 184.889C225.263 184.485 225.25 183.981 225.23 183.508C225.165 182.014 225.101 180.519 225.037 179.024C224.968 177.422 224.606 173.967 224.606 173.967L221.866 174.416ZM217.27 185.013C217.371 185.348 217.491 185.699 217.748 185.923C218.251 186.361 219.065 186.09 219.461 185.544C219.857 184.999 219.946 184.281 220.022 183.599C220.115 182.762 220.205 181.892 219.947 181.094C219.69 180.297 218.978 179.595 218.181 179.669C217.448 179.737 216.881 180.443 216.709 181.196C216.538 181.95 216.682 182.74 216.86 183.492C216.982 184.003 217.118 184.511 217.27 185.013Z" fill="#E7EAEE"/>
<path fill-rule="evenodd" clip-rule="evenodd" d="M265.206 65.1771C264.251 66.6862 263.216 68.2149 261.739 69.1468C260.261 70.0785 258.222 70.26 256.895 69.1049C255.43 67.8304 255.339 65.5329 255.455 63.536C255.5 62.7672 255.558 61.9923 255.768 61.2542C256.13 59.9741 256.923 58.8817 257.75 57.8687C258.753 56.6398 259.864 55.4544 261.256 54.7628C262.648 54.0713 264.378 53.9498 265.682 54.8103C267.243 55.8402 267.821 58.0311 267.525 59.9458C267.229 61.8605 266.227 63.5627 265.206 65.1771ZM262.174 66.7738C263.378 65.4235 264.41 63.904 265.235 62.2683C265.778 61.1919 266.24 60.0219 266.218 58.8033C266.197 57.5847 265.587 56.3109 264.511 55.8587C263.112 55.2697 261.575 56.2119 260.405 57.213C259.572 57.9257 258.766 58.7075 258.232 59.6877C257.893 60.3074 257.674 60.9894 257.457 61.6664C257.045 62.947 256.628 64.2814 256.784 65.6233C256.941 66.9651 257.853 68.3122 259.13 68.4512C260.312 68.5798 261.36 67.686 262.174 66.7738Z" fill="#2BAAAA"/>
<path fill-rule="evenodd" clip-rule="evenodd" d="M19.272 82.2338C20.7676 83.8296 22.0023 85.6956 22.9053 87.725C23.8132 89.7653 22.8979 92.3881 21.1167 93.6362C19.3354 94.8843 16.9271 94.8677 14.974 93.9477C13.0209 93.0277 11.4861 91.3112 10.3556 89.3981C9.50345 87.9563 8.8426 86.3396 8.77178 84.6426C8.70095 82.9457 9.29426 81.1598 10.569 80.1191C11.8584 79.0668 13.6715 78.9165 15.2308 79.4217C16.7901 79.9269 18.1259 81.0117 19.272 82.2338ZM13.4365 81.2639C12.1424 81.1237 10.9927 82.374 10.7708 83.7241C10.5488 85.0741 11.0374 86.4437 11.6697 87.6412C13.0409 90.2372 15.4873 92.5434 18.3051 92.3996C19.7536 92.3259 21.3413 91.2693 21.3156 89.7422C21.3044 89.0823 20.9951 88.4731 20.6861 87.8985C19.8654 86.3714 18.979 84.8609 17.7952 83.6265C16.6114 82.3921 15.0937 81.4439 13.4365 81.2639Z" fill="#2BAAAA"/>
</svg>
